  <svg preserveAspectRatio="xMidYMid meet" viewBox="96.07 56.7 512.93 501.15" xmlns="http://www.w3.org/2000/svg">
    <g transform="matrix(.1 0 0 -.1 0 604)" fill="#fb00ff">
      <path d="m2976 5408c-105-189-119-342-45-475 16-29 26-53 22-53-5 0-39 9-77 20s-72 18-74 15c-9-9 19-90 55-155 19-36 90-144 157-240 68-96 141-204 164-240 69-111 132-251 149-335l17-80-32-44c-39-53-42-98-9-128 22-20 111-80 178-121l35-21 95 60c103 67 149 105 149 126 0 20-29 74-53 100-20 22-20 25-5 102 28 141 102 277 306 564 131 186 198 296 217 361 8 27 13 51 11 53-2 3-38-5-78-16-90-26-95-26-75-3 56 62 80 202 53 315-17 75-71 198-103 236l-20 24-6-61c-12-115-66-228-130-274l-29-21-66 65c-101 98-258 238-267 238-4 0-81-68-171-150l-163-151-26 17c-68 45-120 165-127 297-1 20-5 37-10 37-4 0-23-28-42-62zm232-778c43-19 59-34 92-83 22-32 40-63 40-68 0-27-108 15-134 52-9 13-16 34-16 48 0 15-13 36-32 54-36 31-31 31 50-3zm665 1c-21-17-33-37-33-52 0-14-7-35-16-48-26-36-134-79-134-53 0 21 79 128 101 138 114 52 128 55 82 15z" />
      <path d="m2513 4591c-65-61-165-128-285-191-93-48-198-94-204-88-2 2 19 50 46 106 45 94 48 103 27 96-100-30-238-151-332-294-85-126-184-336-285-600-99-257-110-279-151-315-26-21-39-25-63-21-47 10-98 50-151 121-27 36-50 65-51 65s-26-70-54-156c-49-145-52-162-48-229 14-216 209-352 532-371l101-6-63 38c-35 21-87 60-114 87l-50 48 188 106c104 57 290 164 414 236s248 139 275 149c106 37 179 17 217-60 18-39 20-56 15-155-8-176-75-395-209-681-118-255-146-368-127-516 13-105 34-171 86-273 113-219 331-436 642-642 125-82 388-231 396-224 2 3-33 45-77 94-302 337-463 623-512 904-43 250-3 454 168 855 134 316 168 437 169 606 1 123-21 210-78 305-101 168-302 294-559 350l-29 6 31 32c57 60 109 193 151 390 26 120 50 277 42 277-3-1-29-23-58-49zm-626-803c-18-13-27-29-27-47 0-14-7-37-16-50-19-26-87-60-122-61h-23l27 51c31 55 85 109 112 109 9 1 28 7 42 15 35 19 41 7 7-17z" />
      <path d="m4470 4633c0-5 9-64 20-133 41-251 103-445 166-518l35-41-28-6c-83-17-231-72-304-113-117-65-225-174-272-273-45-96-60-164-60-269 1-158 38-292 160-578 154-362 193-505 193-710 0-144-19-253-67-382-82-222-260-491-472-712-40-43-71-78-67-78 12 0 179 87 261 135 549 325 855 689 873 1040 7 142-13 222-105 425-93 202-153 357-188 475-93 322-62 495 89 495 71-1 127-26 386-177 124-72 304-175 400-228 96-54 177-99 179-102 10-8-109-110-165-141l-59-33 100 5c296 16 495 137 534 324 6 29 11 67 11 85 0 31-100 347-110 347-3 0-16-19-30-41-34-55-123-136-159-144-74-16-109 35-220 321-169 435-273 626-423 774-61 61-147 117-207 135-22 7-20-1 33-99 31-58 52-106 46-106-17 0-185 78-263 122-92 52-169 107-228 163-47 45-59 52-59 38zm806-889c24-29 65-106 60-112-2-2-21 0-41 4-53 10-105 58-105 97 0 22-9 38-32 58l-33 28 65-24c36-14 74-37 86-51z" />
      <path d="m3035 4165c-49-13-124-36-165-51-82-29-305-138-314-153-3-5 6-12 20-15 41-11 163-73 215-111l48-34 98 39c54 21 149 51 211 66 71 18 112 32 112 41 0 21-48 141-77 194-16 27-35 49-43 49-8-1-55-12-105-25z" />
      <path d="m3855 4146c-24-41-89-206-83-210 2-1 59-16 128-33 69-16 165-46 214-65l87-36 84 53c45 28 110 62 144 75 34 12 61 26 61 30 0 12-237 125-333 159-93 32-234 71-261 71-8 0-27-20-41-44z" />
      <path d="m3330 3538c0-244-52-549-190-1118-122-504-146-659-137-875 4-88 12-154 27-205 59-205 190-362 405-485l78-44 51 26c155 78 306 220 373 349 74 142 88 210 88 424-1 211-15 312-91 627-154 638-193 831-219 1078-8 77-15 177-15 223 0 45-3 82-6 82-4 0-41-31-83-68-42-38-81-72-88-76s-46 23-97 69c-46 41-87 75-90 75s-6-37-6-82z" />
      <path d="m2030 3182c-91-54-189-111-218-127l-52-28-34-106c-164-507-101-1080 169-1536 251-424 673-745 1140-865 195-50 315-63 535-57 203 5 292 17 459 63 665 180 1194 741 1340 1419 34 159 44 276 38 458-7 214-41 404-104 571l-18 50-220 128c-121 70-223 128-227 128s12-30 36-67c103-160 181-352 223-549 23-113 27-152 27-314 0-137-4-211-18-285-21-116-79-300-128-406-84-181-241-390-389-518-564-489-1343-542-1959-134-138 92-332 280-429 418-121 173-219 404-260 617-76 396 8 833 224 1162 25 38 45 71 45 72 0 11-29-5-180-94z" />
    </g>
  </svg>